<svg version="1.0" xmlns="http://www.w3.org/2000/svg" viewBox="0 0 3000 3000" preserveAspectRatio="xMidYMid meet">
<g id="layer101" fill="#0a0a0a" stroke="none">
 <path d="M880 1810 c-222 -77 -298 -347 -146 -524 51 -60 104 -91 186 -107 116 -23 229 17 306 107 124 144 98 368 -55 477 -84 60 -200 79 -291 47z m204 -33 c112 -41 194 -159 194 -277 0 -25 -10 -72 -21 -104 -62 -168 -262 -243 -419 -157 -31 17 -59 38 -62 47 -5 13 -3 13 22 0 46 -25 95 -37 105 -27 7 7 1 14 -14 20 -13 5 -46 19 -73 30 -58 25 -67 26 -60 6 14 -34 -7 -11 -37 43 -28 50 -32 67 -33 138 -1 72 2 87 28 135 17 30 42 66 56 80 26 27 97 69 135 80 43 13 122 6 179 -14z"/>
 <path d="M1197 1548 c7 -121 33 -138 41 -28 3 44 0 66 -12 85 -28 42 -35 29 -29 -57z"/>
 <path d="M970 1605 c-10 -12 -9 -22 4 -49 9 -19 16 -39 16 -44 0 -20 51 -71 65 -65 17 6 20 59 5 68 -5 3 -10 15 -10 25 0 19 -45 80 -60 80 -4 0 -13 -7 -20 -15z"/>
 <path d="M800 1477 c0 -31 25 -63 72 -93 38 -24 68 -26 68 -5 0 14 -113 121 -127 121 -7 0 -13 -10 -13 -23z"/>
 <path d="M1480 1686 c0 -14 -4 -28 -10 -31 -5 -3 -12 -28 -16 -56 -4 -27 -11 -52 -15 -55 -5 -3 -9 -18 -9 -34 0 -16 -4 -31 -10 -35 -5 -3 -7 -12 -4 -19 3 -8 1 -17 -5 -21 -6 -3 -11 -19 -11 -35 0 -16 -5 -32 -10 -35 -6 -4 -8 -11 -4 -16 3 -5 0 -17 -7 -25 -11 -13 -8 -15 27 -12 35 3 39 6 42 33 2 17 8 34 13 40 5 5 9 21 9 36 0 15 4 30 10 34 5 3 7 12 4 19 -3 8 -1 17 5 21 6 3 11 19 11 35 0 16 4 31 10 35 5 3 7 12 3 20 -3 8 -1 15 5 15 12 0 32 -53 32 -84 0 -12 7 -34 16 -51 8 -16 20 -52 25 -79 10 -56 24 -76 50 -76 13 0 21 12 29 43 20 86 72 237 80 237 5 0 14 -26 20 -57 7 -32 16 -66 21 -76 5 -10 7 -22 4 -27 -3 -5 -1 -11 5 -15 5 -3 10 -19 10 -35 0 -16 5 -32 11 -35 6 -4 8 -13 5 -21 -4 -10 4 -14 29 -14 28 0 35 4 35 19 0 11 -4 23 -10 26 -5 3 -10 19 -10 35 0 16 -4 32 -10 35 -5 3 -10 19 -10 35 0 16 -4 32 -10 35 -5 3 -10 19 -10 35 0 16 -4 32 -10 35 -5 3 -10 19 -10 34 0 15 -4 31 -9 37 -5 5 -11 23 -13 39 -3 25 -8 30 -34 33 -31 3 -33 1 -52 -60 -12 -35 -28 -92 -37 -128 -9 -36 -19 -68 -24 -73 -4 -4 -15 19 -25 50 -10 32 -22 63 -26 68 -4 6 -17 40 -29 78 -21 62 -25 67 -52 67 -24 0 -29 -4 -29 -24z"/>
 <path d="M1950 1511 l0 -201 78 1 c42 1 91 4 107 8 56 12 82 108 40 150 -13 13 -11 19 16 47 22 23 33 45 36 76 4 37 0 48 -25 78 l-30 35 -111 3 -111 4 0 -201z m188 133 c19 -5 22 -13 22 -54 0 -55 -8 -60 -97 -60 l-53 0 0 60 0 60 53 0 c28 0 62 -3 75 -6z m-19 -183 c8 -5 14 -24 14 -41 0 -40 -15 -50 -75 -50 l-48 0 0 50 0 50 48 0 c26 0 53 -4 61 -9z"/>
 <path d="M2300 1510 l0 -200 30 0 30 0 0 170 0 170 80 0 80 0 0 30 0 30 -110 0 -110 0 0 -200z"/>
 </g>
<g id="layer102" fill="#0a0a0a" stroke="none">
 <path d="M943 1823 c4 -3 10 -3 14 0 3 4 0 7 -7 7 -7 0 -10 -3 -7 -7z"/>
 <path d="M1003 1823 c4 -3 10 -3 14 0 3 4 0 7 -7 7 -7 0 -10 -3 -7 -7z"/>
 <path d="M883 1813 c4 -3 10 -3 14 0 3 4 0 7 -7 7 -7 0 -10 -3 -7 -7z"/>
 <path d="M1063 1813 c4 -3 10 -3 14 0 3 4 0 7 -7 7 -7 0 -10 -3 -7 -7z"/>
 <path d="M853 1803 c4 -3 10 -3 14 0 3 4 0 7 -7 7 -7 0 -10 -3 -7 -7z"/>
 <path d="M1093 1803 c4 -3 10 -3 14 0 3 4 0 7 -7 7 -7 0 -10 -3 -7 -7z"/>
 <path d="M923 1793 c4 -3 10 -3 14 0 3 4 0 7 -7 7 -7 0 -10 -3 -7 -7z"/>
 <path d="M1018 1793 c7 -3 16 -2 19 1 4 3 -2 6 -13 5 -11 0 -14 -3 -6 -6z"/>
 <path d="M804 1778 c-4 -7 -3 -8 4 -4 7 4 12 9 12 12 0 8 -9 4 -16 -8z"/>
 <path d="M883 1783 c4 -3 10 -3 14 0 3 4 0 7 -7 7 -7 0 -10 -3 -7 -7z"/>
 <path d="M1145 1780 c3 -5 8 -10 11 -10 3 0 2 5 -1 10 -3 6 -8 10 -11 10 -3 0 -2 -4 1 -10z"/>
 <path d="M774 1758 c-4 -7 -3 -8 4 -4 12 7 16 16 8 16 -3 0 -8 -5 -12 -12z"/>
 <path d="M1175 1760 c3 -5 8 -10 11 -10 3 0 2 5 -1 10 -3 6 -8 10 -11 10 -3 0 -2 -4 1 -10z"/>
 <path d="M784 1728 c-4 -7 -3 -8 4 -4 12 7 16 16 8 16 -3 0 -8 -5 -12 -12z"/>
 <path d="M1165 1730 c3 -5 8 -10 11 -10 3 0 2 5 -1 10 -3 6 -8 10 -11 10 -3 0 -2 -4 1 -10z"/>
 <path d="M714 1698 c-4 -7 -3 -8 4 -4 12 7 16 16 8 16 -3 0 -8 -5 -12 -12z"/>
 <path d="M1235 1700 c3 -5 8 -10 11 -10 3 0 2 5 -1 10 -3 6 -8 10 -11 10 -3 0 -2 -4 1 -10z"/>
 <path d="M1540 1700 c0 -7 3 -10 7 -7 3 4 3 10 0 14 -4 3 -7 0 -7 -7z"/>
 <path d="M744 1688 c-4 -7 -3 -8 4 -4 12 7 16 16 8 16 -3 0 -8 -5 -12 -12z"/>
 <path d="M1205 1690 c3 -5 8 -10 11 -10 3 0 2 5 -1 10 -3 6 -8 10 -11 10 -3 0 -2 -4 1 -10z"/>
 <path d="M694 1668 c-4 -7 -3 -8 4 -4 12 7 16 16 8 16 -3 0 -8 -5 -12 -12z"/>
 <path d="M1255 1670 c3 -5 8 -10 11 -10 3 0 2 5 -1 10 -3 6 -8 10 -11 10 -3 0 -2 -4 1 -10z"/>
 <path d="M1470 1670 c0 -7 3 -10 7 -7 3 4 3 10 0 14 -4 3 -7 0 -7 -7z"/>
 <path d="M1550 1670 c0 -7 3 -10 7 -7 3 4 3 10 0 14 -4 3 -7 0 -7 -7z"/>
 <path d="M1790 1650 c0 -7 3 -10 7 -7 3 4 3 10 0 14 -4 3 -7 0 -7 -7z"/>
 <path d="M2215 1650 c3 -5 8 -10 11 -10 3 0 2 5 -1 10 -3 6 -8 10 -11 10 -3 0 -2 -4 1 -10z"/>
 <path d="M1560 1640 c0 -7 3 -10 7 -7 3 4 3 10 0 14 -4 3 -7 0 -7 -7z"/>
 <path d="M670 1620 c0 -7 3 -10 7 -7 3 4 3 10 0 14 -4 3 -7 0 -7 -7z"/>
 <path d="M1280 1620 c0 -7 3 -10 7 -7 3 4 3 10 0 14 -4 3 -7 0 -7 -7z"/>
 <path d="M964 1608 c-4 -7 -3 -8 4 -4 12 7 16 16 8 16 -3 0 -8 -5 -12 -12z"/>
 <path d="M1000 1616 c0 -2 8 -10 18 -17 15 -13 16 -12 3 4 -13 16 -21 21 -21 13z"/>
 <path d="M1570 1610 c0 -7 3 -10 7 -7 3 4 3 10 0 14 -4 3 -7 0 -7 -7z"/>
 <path d="M660 1590 c0 -7 3 -10 7 -7 3 4 3 10 0 14 -4 3 -7 0 -7 -7z"/>
 <path d="M690 1590 c0 -7 3 -10 7 -7 3 4 3 10 0 14 -4 3 -7 0 -7 -7z"/>
 <path d="M1190 1590 c0 -7 3 -10 7 -7 3 4 3 10 0 14 -4 3 -7 0 -7 -7z"/>
 <path d="M1290 1590 c0 -7 3 -10 7 -7 3 4 3 10 0 14 -4 3 -7 0 -7 -7z"/>
 <path d="M1510 1594 c0 -3 7 -12 15 -20 16 -17 18 -14 9 10 -6 15 -24 23 -24 10z"/>
 <path d="M1580 1580 c0 -7 3 -10 7 -7 3 4 3 10 0 14 -4 3 -7 0 -7 -7z"/>
 <path d="M1736 1574 c-9 -24 -7 -27 9 -10 17 17 19 26 6 26 -5 0 -12 -7 -15 -16z"/>
 <path d="M1810 1580 c0 -7 3 -10 7 -7 3 4 3 10 0 14 -4 3 -7 0 -7 -7z"/>
 <path d="M1440 1560 c0 -7 3 -10 7 -7 3 4 3 10 0 14 -4 3 -7 0 -7 -7z"/>
 <path d="M2220 1560 c0 -7 3 -10 7 -7 3 4 3 10 0 14 -4 3 -7 0 -7 -7z"/>
 <path d="M680 1550 c0 -7 3 -10 7 -7 3 4 3 10 0 14 -4 3 -7 0 -7 -7z"/>
 <path d="M1271 1544 c0 -11 3 -14 6 -6 3 7 2 16 -1 19 -3 4 -6 -2 -5 -13z"/>
 <path d="M1500 1550 c0 -7 3 -10 7 -7 3 4 3 10 0 14 -4 3 -7 0 -7 -7z"/>
 <path d="M1760 1550 c0 -7 3 -10 7 -7 3 4 3 10 0 14 -4 3 -7 0 -7 -7z"/>
 <path d="M1540 1540 c0 -7 3 -10 7 -7 3 4 3 10 0 14 -4 3 -7 0 -7 -7z"/>
 <path d="M650 1530 c0 -7 3 -10 7 -7 3 4 3 10 0 14 -4 3 -7 0 -7 -7z"/>
 <path d="M1050 1530 c0 -7 3 -10 7 -7 3 4 3 10 0 14 -4 3 -7 0 -7 -7z"/>
 <path d="M1300 1530 c0 -7 3 -10 7 -7 3 4 3 10 0 14 -4 3 -7 0 -7 -7z"/>
 <path d="M1720 1530 c0 -7 3 -10 7 -7 3 4 3 10 0 14 -4 3 -7 0 -7 -7z"/>
 <path d="M2194 1518 l-19 -23 23 19 c21 18 27 26 19 26 -2 0 -12 -10 -23 -22z"/>
 <path d="M1646 1483 c-9 -26 -12 -43 -7 -38 11 13 32 77 27 82 -2 2 -11 -17 -20 -44z"/>
 <path d="M1770 1510 c0 -7 3 -10 7 -7 3 4 3 10 0 14 -4 3 -7 0 -7 -7z"/>
 <path d="M1830 1510 c0 -7 3 -10 7 -7 3 4 3 10 0 14 -4 3 -7 0 -7 -7z"/>
 <path d="M1710 1500 c0 -7 3 -10 7 -7 3 4 3 10 0 14 -4 3 -7 0 -7 -7z"/>
 <path d="M1420 1490 c0 -7 3 -10 7 -7 3 4 3 10 0 14 -4 3 -7 0 -7 -7z"/>
 <path d="M1480 1480 c0 -7 3 -10 7 -7 3 4 3 10 0 14 -4 3 -7 0 -7 -7z"/>
 <path d="M2160 1486 c0 -2 8 -10 18 -17 15 -13 16 -12 3 4 -13 16 -21 21 -21 13z"/>
 <path d="M650 1470 c0 -7 3 -10 7 -7 3 4 3 10 0 14 -4 3 -7 0 -7 -7z"/>
 <path d="M1230 1470 c0 -7 3 -10 7 -7 3 4 3 10 0 14 -4 3 -7 0 -7 -7z"/>
 <path d="M1300 1470 c0 -7 3 -10 7 -7 3 4 3 10 0 14 -4 3 -7 0 -7 -7z"/>
 <path d="M1692 1443 c-6 -20 -10 -39 -8 -41 2 -2 9 13 16 33 7 20 10 38 8 41 -3 2 -10 -13 -16 -33z"/>
 <path d="M1010 1466 c0 -2 8 -10 18 -17 15 -13 16 -12 3 4 -13 16 -21 21 -21 13z"/>
 <path d="M1271 1454 c0 -11 3 -14 6 -6 3 7 2 16 -1 19 -3 4 -6 -2 -5 -13z"/>
 <path d="M680 1450 c0 -7 3 -10 7 -7 3 4 3 10 0 14 -4 3 -7 0 -7 -7z"/>
 <path d="M1410 1450 c0 -7 3 -10 7 -7 3 4 3 10 0 14 -4 3 -7 0 -7 -7z"/>
 <path d="M1470 1440 c0 -7 3 -10 7 -7 3 4 3 10 0 14 -4 3 -7 0 -7 -7z"/>
 <path d="M1570 1440 c0 -7 3 -10 7 -7 3 4 3 10 0 14 -4 3 -7 0 -7 -7z"/>
 <path d="M1790 1440 c0 -7 3 -10 7 -7 3 4 3 10 0 14 -4 3 -7 0 -7 -7z"/>
 <path d="M1850 1440 c0 -7 3 -10 7 -7 3 4 3 10 0 14 -4 3 -7 0 -7 -7z"/>
 <path d="M2190 1440 c0 -7 3 -10 7 -7 3 4 3 10 0 14 -4 3 -7 0 -7 -7z"/>
 <path d="M905 1420 c3 -5 8 -10 11 -10 3 0 2 5 -1 10 -3 6 -8 10 -11 10 -3 0 -2 -4 1 -10z"/>
 <path d="M660 1410 c0 -7 3 -10 7 -7 3 4 3 10 0 14 -4 3 -7 0 -7 -7z"/>
 <path d="M690 1410 c0 -7 3 -10 7 -7 3 4 3 10 0 14 -4 3 -7 0 -7 -7z"/>
 <path d="M1290 1410 c0 -7 3 -10 7 -7 3 4 3 10 0 14 -4 3 -7 0 -7 -7z"/>
 <path d="M1580 1410 c0 -7 3 -10 7 -7 3 4 3 10 0 14 -4 3 -7 0 -7 -7z"/>
 <path d="M1800 1400 c0 -7 3 -10 7 -7 3 4 3 10 0 14 -4 3 -7 0 -7 -7z"/>
 <path d="M670 1380 c0 -7 3 -10 7 -7 3 4 3 10 0 14 -4 3 -7 0 -7 -7z"/>
 <path d="M1280 1380 c0 -7 3 -10 7 -7 3 4 3 10 0 14 -4 3 -7 0 -7 -7z"/>
 <path d="M1390 1380 c0 -7 3 -10 7 -7 3 4 3 10 0 14 -4 3 -7 0 -7 -7z"/>
 <path d="M2191 1383 c-1 -6 -4 -20 -7 -30 -5 -17 -5 -17 6 0 6 10 9 23 6 30 -3 9 -5 9 -5 0z"/>
 <path d="M885 1370 c3 -5 8 -10 11 -10 3 0 2 5 -1 10 -3 6 -8 10 -11 10 -3 0 -2 -4 1 -10z"/>
 <path d="M934 1368 c-4 -7 -3 -8 4 -4 7 4 12 9 12 12 0 8 -9 4 -16 -8z"/>
 <path d="M1450 1370 c0 -7 3 -10 7 -7 3 4 3 10 0 14 -4 3 -7 0 -7 -7z"/>
 <path d="M1870 1370 c0 -7 3 -10 7 -7 3 4 3 10 0 14 -4 3 -7 0 -7 -7z"/>
 <path d="M1380 1340 c0 -7 3 -10 7 -7 3 4 3 10 0 14 -4 3 -7 0 -7 -7z"/>
 <path d="M744 1329 c-3 -6 -1 -16 4 -21 8 -8 11 -5 9 11 -1 24 -3 25 -13 10z"/>
 <path d="M1820 1330 c0 -7 3 -10 7 -7 3 4 3 10 0 14 -4 3 -7 0 -7 -7z"/>
 <path d="M1204 1308 c-4 -7 -3 -8 4 -4 7 4 12 9 12 12 0 8 -9 4 -16 -8z"/>
 <path d="M2113 1313 c4 -3 10 -3 14 0 3 4 0 7 -7 7 -7 0 -10 -3 -7 -7z"/>
 <path d="M715 1300 c3 -5 8 -10 11 -10 3 0 2 5 -1 10 -3 6 -8 10 -11 10 -3 0 -2 -4 1 -10z"/>
 <path d="M1234 1298 c-4 -7 -3 -8 4 -4 7 4 12 9 12 12 0 8 -9 4 -16 -8z"/>
 <path d="M785 1270 c3 -5 8 -10 11 -10 3 0 2 5 -1 10 -3 6 -8 10 -11 10 -3 0 -2 -4 1 -10z"/>
 <path d="M1164 1268 c-4 -7 -3 -8 4 -4 7 4 12 9 12 12 0 8 -9 4 -16 -8z"/>
 <path d="M833 1263 c4 -3 10 -3 14 0 3 4 0 7 -7 7 -7 0 -10 -3 -7 -7z"/>
 <path d="M863 1253 c4 -3 10 -3 14 0 3 4 0 7 -7 7 -7 0 -10 -3 -7 -7z"/>
 <path d="M883 1213 c4 -3 10 -3 14 0 3 4 0 7 -7 7 -7 0 -10 -3 -7 -7z"/>
 <path d="M923 1203 c4 -3 10 -3 14 0 3 4 0 7 -7 7 -7 0 -10 -3 -7 -7z"/>
 <path d="M1018 1203 c7 -3 16 -2 19 1 4 3 -2 6 -13 5 -11 0 -14 -3 -6 -6z"/>
 <path d="M923 1173 c4 -3 10 -3 14 0 3 4 0 7 -7 7 -7 0 -10 -3 -7 -7z"/>
 <path d="M1023 1173 c4 -3 10 -3 14 0 3 4 0 7 -7 7 -7 0 -10 -3 -7 -7z"/>
 </g>
<g id="layer103" fill="none" stroke="none">
 <path d="M0 1500 l0 -1500 1500 0 1500 0 0 1500 0 1500 -1500 0 -1500 0 0 -1500z m1112 303 c65 -30 133 -95 165 -162 37 -75 40 -200 6 -273 -30 -66 -96 -133 -162 -165 -48 -24 -68 -28 -141 -28 -73 0 -93 4 -141 28 -223 109 -253 402 -57 560 85 68 227 85 330 40z m477 -224 c23 -72 44 -129 46 -127 2 2 22 61 45 131 l42 128 31 -3 30 -3 53 -185 c29 -102 54 -191 54 -197 0 -8 -13 -13 -33 -13 l-33 0 -33 130 c-19 72 -37 130 -42 130 -4 0 -26 -58 -49 -130 -38 -117 -45 -130 -65 -130 -21 0 -27 11 -55 103 -50 165 -52 169 -58 162 -4 -3 -23 -63 -43 -133 l-35 -127 -36 -3 -36 -3 23 83 c12 46 37 136 55 201 l32 117 32 0 32 0 43 -131z m610 97 c26 -25 31 -37 31 -79 0 -41 -5 -53 -30 -79 -28 -27 -29 -31 -15 -51 20 -29 19 -101 -2 -122 -27 -27 -60 -35 -149 -35 l-84 0 0 201 0 201 109 -4 c106 -3 111 -4 140 -32z m321 4 l0 -30 -80 0 -80 0 0 -170 0 -170 -30 0 -30 0 0 200 0 200 110 0 110 0 0 -30z"/>
 <path d="M917 1789 c-137 -33 -230 -150 -230 -289 0 -76 34 -169 61 -168 25 0 157 -58 155 -68 -4 -19 -40 -14 -88 12 l-50 26 23 -25 c64 -68 209 -90 308 -48 190 82 238 335 91 479 -70 69 -182 103 -270 81z m307 -181 c22 -31 22 -146 1 -155 -9 -3 -17 -4 -19 -2 -2 2 -6 43 -10 92 -7 91 -1 106 28 65z m-181 -47 c31 -62 35 -106 11 -115 -24 -9 -38 7 -69 79 -30 71 -28 98 7 93 16 -2 31 -19 51 -57z m-154 -120 c63 -59 70 -81 27 -81 -35 0 -116 80 -116 113 0 15 6 27 13 27 6 0 41 -27 76 -59z"/>
 <path d="M2010 1590 l0 -60 56 0 c76 0 94 11 94 60 0 49 -18 60 -94 60 l-56 0 0 -60z"/>
 <path d="M2010 1420 l0 -50 48 0 c60 0 75 10 75 50 0 40 -15 50 -75 50 l-48 0 0 -50z"/>
 </g>

</svg>